<?xml version="1.0" encoding="UTF-8"?>
<svg width="116px" height="116px" viewBox="0 0 116 116" version="1.1" xmlns="http://www.w3.org/2000/svg" xmlns:xlink="http://www.w3.org/1999/xlink">
    <!-- Generator: Sketch 63.1 (92452) - https://sketch.com -->
    <title>编组 2</title>
    <desc>Created with Sketch.</desc>
    <g id="页面-1" stroke="none" stroke-width="1" fill="none" fill-rule="evenodd">
        <g id="iPhone-8-Copy-2备份" transform="translate(-317.000000, -348.000000)">
            <g id="编组-2" transform="translate(317.000000, 348.000000)">
                <circle id="椭圆形" fill="#0E4090" cx="58" cy="58" r="58"></circle>
                <g id="编组" transform="translate(18.000000, 23.000000)" fill="#FFFFFF">
                    <path d="M79.8125,10.6014063 C66.1458333,12.268073 55.4791667,21.9347397 47.8125,39.6014063 C40.1458333,57.268073 30.6458333,67.4347397 19.3125,70.1014063 C39.9791667,72.768073 53.3125,65.1014063 59.3125,47.1014063 C65.3125,29.1014063 72.1458333,16.9347397 79.8125,10.6014063 Z" id="路径-3备份-2"></path>
                    <path d="M15.3125,68.1014063 C3.64583333,61.1014063 -1.35416667,53.9347397 0.3125,46.6014063 C0.3125,46.6014063 1.49230482,40.8963575 8.3125,42.6014063 C10.3125,43.1014063 11.8125,44.6014063 12.8125,46.6014063 C12.8125,46.6014063 7.27226259,49.0237354 7.8125,55.1014063 C8.01815149,57.4149856 10.5181515,61.7483189 15.3125,68.1014063 Z" id="路径-4备份"></path>
                    <path d="M1.8125,41.1014063 C4.14583333,39.4347397 7.14583333,38.9347397 10.8125,39.6014063 C16.3125,40.6014063 20.8125,52.6014063 31.3125,51.6014063 C41.8125,50.6014063 46.3125,38.1014063 40.3125,32.1014063 C34.3125,26.1014063 20.3125,25.1014063 12.8125,29.1014063 C7.8125,31.768073 4.14583333,35.768073 1.8125,41.1014063 Z" id="路径-5备份"></path>
                    <path d="M37.9819621,8.5 C44.6486288,6.56760422 51.6486288,5.93473966 58.9819621,6.60140633 C68.5273268,7.46916675 76.428406,-1.01470342 75.9819621,0.101406328 C73.9819621,5.10140633 70.958242,9.60931304 63.4819621,12.1014063 C60.4819621,13.1014063 55.9819621,14.5 49.9819621,12 C46.4780435,10.5400339 42.4780435,9.37336724 37.9819621,8.5 Z" id="路径-6" transform="translate(56.990981, 6.702668) scale(-1, 1) translate(-56.990981, -6.702668) "></path>
                </g>
            </g>
        </g>
    </g>
</svg>